<svg width="25" height="24" viewBox="0 0 25 24" fill="none" xmlns="http://www.w3.org/2000/svg">
<path d="M12.3499 5.62592C11.0888 5.62568 9.85589 5.99944 8.80718 6.69991C7.75847 7.40039 6.94103 8.39613 6.45825 9.5612C5.97546 10.7263 5.84902 12.0083 6.0949 13.2453C6.34079 14.4822 6.94796 15.6184 7.83963 16.5103C8.7313 17.4021 9.86741 18.0095 11.1043 18.2557C12.3412 18.5018 13.6233 18.3756 14.7884 17.8931C15.9536 17.4105 16.9495 16.5933 17.6502 15.5447C18.3509 14.4961 18.7249 13.2633 18.7249 12.0022C18.7232 10.3119 18.051 8.69124 16.8559 7.49587C15.6607 6.3005 14.0403 5.628 12.3499 5.62592Z" fill="#21E786"/>
<path d="M22.4851 10.877H20.9864C20.688 10.877 20.4018 10.9956 20.1908 11.2066C19.9798 11.4176 19.8612 11.7038 19.8612 12.0022C19.8612 12.3006 19.9798 12.5868 20.1908 12.7978C20.4018 13.0088 20.688 13.1274 20.9864 13.1274H22.4851C22.7835 13.1274 23.0697 13.0088 23.2808 12.7978C23.4918 12.5868 23.6103 12.3006 23.6103 12.0022C23.6103 11.7038 23.4918 11.4176 23.2808 11.2066C23.0697 10.9956 22.7835 10.877 22.4851 10.877Z" fill="#21E786"/>
<path d="M12.3498 19.4998C12.0516 19.5003 11.7657 19.619 11.5549 19.8299C11.3441 20.0409 11.2256 20.3268 11.2253 20.625V22.1252C11.2253 22.4234 11.3438 22.7094 11.5547 22.9202C11.7655 23.1311 12.0515 23.2496 12.3497 23.2496C12.6479 23.2496 12.9339 23.1311 13.1447 22.9202C13.3556 22.7094 13.4741 22.4234 13.4741 22.1252V20.625C13.4738 20.3268 13.3554 20.0409 13.1446 19.83C12.9338 19.619 12.648 19.5003 12.3498 19.4998Z" fill="#21E786"/>
<path d="M4.85681 12.0022C4.85656 11.704 4.73803 11.4181 4.52723 11.2071C4.31643 10.9962 4.03057 10.8775 3.73236 10.877H2.23383C1.93541 10.877 1.64922 10.9956 1.4382 11.2066C1.22719 11.4176 1.10864 11.7038 1.10864 12.0022C1.10864 12.3006 1.22719 12.5868 1.4382 12.7978C1.64922 13.0088 1.93541 13.1274 2.23383 13.1274H3.73236C4.03058 13.1269 4.31643 13.0082 4.52723 12.7973C4.73803 12.5863 4.85656 12.3004 4.85681 12.0022Z" fill="#21E786"/>
<path d="M12.3499 4.50055C12.6481 4.5001 12.9339 4.38138 13.1447 4.17045C13.3555 3.95952 13.474 3.67358 13.4743 3.37537V1.87518C13.4743 1.57698 13.3558 1.291 13.145 1.08014C12.9341 0.869283 12.6481 0.750824 12.3499 0.750824C12.0517 0.750824 11.7658 0.869283 11.5549 1.08014C11.344 1.291 11.2256 1.57698 11.2256 1.87518V3.37537C11.2258 3.67356 11.3443 3.95949 11.5551 4.17043C11.7658 4.38137 12.0517 4.50009 12.3499 4.50055Z" fill="#21E786"/>
<path d="M19.2451 6.6972L20.3058 5.63642C20.4106 5.53209 20.4937 5.40812 20.5505 5.27162C20.6073 5.13512 20.6366 4.98876 20.6367 4.84093C20.6369 4.69309 20.6079 4.54667 20.5514 4.41006C20.4949 4.27344 20.412 4.14931 20.3074 4.04478C20.2029 3.94024 20.0788 3.85734 19.9421 3.80083C19.8055 3.74432 19.6591 3.71531 19.5113 3.71545C19.3634 3.7156 19.2171 3.7449 19.0806 3.80167C18.9441 3.85845 18.8201 3.94159 18.7158 4.04633L17.655 5.10713C17.5502 5.21147 17.4671 5.33543 17.4103 5.47193C17.3535 5.60843 17.3242 5.75479 17.3241 5.90263C17.324 6.05047 17.353 6.19689 17.4095 6.3335C17.466 6.47011 17.5489 6.59424 17.6534 6.69878C17.758 6.80331 17.8821 6.88621 18.0187 6.94272C18.1553 6.99922 18.3017 7.02823 18.4496 7.02809C18.5974 7.02794 18.7438 6.99864 18.8803 6.94186C19.0168 6.88508 19.1407 6.80194 19.2451 6.6972Z" fill="#21E786"/>
<path d="M19.2449 17.3073C19.1406 17.2026 19.0166 17.1195 18.8801 17.0628C18.7436 17.006 18.5973 16.9767 18.4494 16.9766C18.3016 16.9765 18.1552 17.0055 18.0186 17.062C17.882 17.1185 17.7579 17.2014 17.6534 17.3059C17.5489 17.4104 17.466 17.5345 17.4095 17.6711C17.353 17.8077 17.324 17.9541 17.3241 18.1019C17.3242 18.2498 17.3535 18.3961 17.4102 18.5326C17.467 18.6691 17.5501 18.7931 17.6548 18.8974L18.7156 19.9582C18.8199 20.0629 18.9439 20.146 19.0804 20.2027C19.2169 20.2595 19.3632 20.2888 19.5111 20.2889C19.6589 20.289 19.8053 20.26 19.9419 20.2035C20.0785 20.147 20.2026 20.0641 20.3071 19.9596C20.4116 19.855 20.4945 19.7309 20.551 19.5943C20.6075 19.4578 20.6365 19.3114 20.6364 19.1635C20.6363 19.0157 20.607 18.8694 20.5502 18.7329C20.4935 18.5964 20.4104 18.4724 20.3057 18.3681L19.2449 17.3073Z" fill="#21E786"/>
<path d="M5.45468 17.3072L4.3939 18.368C4.28913 18.4723 4.20596 18.5963 4.14915 18.7328C4.09235 18.8693 4.06303 19.0157 4.06287 19.1635C4.06271 19.3114 4.09171 19.4578 4.14822 19.5944C4.20473 19.7311 4.28763 19.8552 4.39218 19.9598C4.49673 20.0643 4.62088 20.1472 4.75751 20.2037C4.89414 20.2602 5.04058 20.2892 5.18843 20.2891C5.33629 20.2889 5.48266 20.2596 5.61917 20.2028C5.75568 20.146 5.87964 20.0628 5.98397 19.958L7.04477 18.8973C7.14948 18.7929 7.23258 18.669 7.28933 18.5325C7.34608 18.396 7.37535 18.2496 7.37548 18.1018C7.37561 17.954 7.34659 17.8076 7.29008 17.671C7.23358 17.5344 7.15069 17.4103 7.04616 17.3058C6.94164 17.2013 6.81753 17.1184 6.68094 17.0619C6.54435 17.0054 6.39795 16.9763 6.25013 16.9765C6.10231 16.9766 5.95597 17.0059 5.81948 17.0626C5.68299 17.1194 5.55902 17.2025 5.45468 17.3072Z" fill="#21E786"/>
<path d="M5.45483 6.69708C5.55921 6.80164 5.68316 6.88459 5.81962 6.94122C5.95607 6.99784 6.10234 7.02701 6.25008 7.02708C6.39781 7.02714 6.54411 6.99809 6.68061 6.94158C6.81711 6.88507 6.94113 6.80222 7.0456 6.69776C7.15006 6.59329 7.23291 6.46927 7.28942 6.33277C7.34592 6.19627 7.37498 6.04997 7.37491 5.90224C7.37485 5.7545 7.34567 5.60823 7.28905 5.47178C7.23243 5.33532 7.14947 5.21137 7.04492 5.10699L5.98412 4.04619C5.87982 3.94131 5.75585 3.85804 5.61931 3.80114C5.48277 3.74425 5.33634 3.71486 5.18843 3.71466C5.04051 3.71445 4.89401 3.74343 4.75731 3.79995C4.62061 3.85646 4.49641 3.93938 4.39181 4.04398C4.28722 4.14857 4.20429 4.27278 4.14778 4.40947C4.09128 4.54617 4.06229 4.69268 4.0625 4.84059C4.06271 4.98851 4.0921 5.13493 4.14899 5.27147C4.20588 5.40801 4.28916 5.53198 4.39404 5.63628L5.45483 6.69708Z" fill="#21E786"/>
</svg>
