<svg width="12" height="13" viewBox="0 0 12 13" fill="none" xmlns="http://www.w3.org/2000/svg">
<g clip-path="url(#clip0_122_1194)">
<path d="M11.2105 7.28518V9.14541C11.2105 9.16685 11.2101 9.18829 11.2088 9.20973C11.2084 9.21394 11.2084 9.21856 11.208 9.22276C11.2071 9.23538 11.2063 9.24799 11.205 9.26102C11.2038 9.27363 11.2025 9.28624 11.2008 9.29885C11.1996 9.31105 11.1975 9.32324 11.1958 9.33501C11.1928 9.35309 11.1899 9.37074 11.1861 9.38882C11.184 9.40017 11.1815 9.4111 11.179 9.42245C11.1764 9.43212 11.1739 9.44221 11.1714 9.4523C11.1693 9.46155 11.1668 9.47037 11.1638 9.47962C11.1525 9.5204 11.1386 9.56076 11.1226 9.60027C11.1193 9.60868 11.1159 9.61751 11.1121 9.62592C11.1025 9.64904 11.0919 9.67174 11.0806 9.69402C11.0751 9.70537 11.0692 9.7163 11.0634 9.72723L11.0629 9.72681L8.95846 8.5556L5.6626 6.72102L8.14122 5.58008L11.1659 7.2608L11.2105 7.28518Z" fill="url(#paint0_linear_122_1194)"/>
<path d="M11.1724 3.81302L10.5309 4.3074L9.96291 5.20031L4.56299 2.19452L6.61492 0.753418L7.85507 1.46976H7.85549L10.1281 2.7818L10.5985 3.05337C10.8882 3.22069 11.0925 3.49647 11.1724 3.81302Z" fill="url(#paint1_linear_122_1194)"/>
<path d="M11.2104 7.23438V9.14505C11.2104 9.16649 11.21 9.18793 11.2088 9.20937C11.2083 9.21357 11.2083 9.2182 11.2079 9.2224C11.2071 9.23501 11.2062 9.24763 11.205 9.26066C11.2037 9.27327 11.2025 9.28588 11.2008 9.29849C11.1995 9.31068 11.1974 9.32288 11.1957 9.33465C11.1928 9.35272 11.1898 9.37038 11.1861 9.38846C11.184 9.39981 11.1814 9.41074 11.1789 9.42209C11.1764 9.43176 11.1739 9.44185 11.1713 9.45194C11.1692 9.46118 11.1667 9.47001 11.1638 9.47926C11.1524 9.52004 11.1386 9.5604 11.1226 9.59991C11.1192 9.60832 11.1159 9.61715 11.1121 9.62556C11.1024 9.64868 11.0919 9.67138 11.0805 9.69366C11.0751 9.70501 11.0692 9.71594 11.0633 9.72687C11.0566 9.73906 11.0499 9.75125 11.0427 9.76303C11.036 9.77522 11.0284 9.78699 11.0213 9.79876C11.0061 9.82188 10.9906 9.845 10.9742 9.86728C10.9574 9.88998 10.9401 9.91184 10.9225 9.93286C10.9132 9.94379 10.904 9.9543 10.8947 9.96439C10.8855 9.9749 10.8758 9.98499 10.8661 9.99508C10.8468 10.0153 10.8266 10.035 10.8056 10.0535C10.7976 10.0611 10.7892 10.0682 10.7808 10.0754C10.7758 10.0796 10.7707 10.0838 10.7657 10.088C10.7556 10.0968 10.7451 10.1052 10.7341 10.1132C10.7236 10.1216 10.7131 10.1296 10.7018 10.1372C10.6807 10.1527 10.6589 10.1674 10.6366 10.1813C10.6244 10.1889 10.6122 10.1964 10.5996 10.2036L6.241 12.7201C5.86265 12.9382 5.39686 12.9382 5.01893 12.7201L3.4248 11.7998L8.95841 8.55524L11.1659 7.26044L11.2104 7.23438Z" fill="#606466"/>
<path d="M7.85541 1.47002L2.24026 4.68685V7.53345L10.1285 3.05015L10.5989 3.32172C10.9768 3.5399 11.2097 3.94348 11.2097 4.38027V5.01548L2.24026 10.1076V11.3845L0.659167 10.4718C0.281236 10.2532 0.0483398 9.85004 0.0483398 9.41325V4.11218C0.0483398 3.67539 0.281236 3.27181 0.659167 3.05363L5.0182 0.537172C5.39613 0.318989 5.86192 0.318989 6.24027 0.537172L7.85541 1.47002Z" fill="#606466"/>
</g>
<defs>
<linearGradient id="paint0_linear_122_1194" x1="10.9718" y1="9.10382" x2="7.44838" y2="6.98978" gradientUnits="userSpaceOnUse">
<stop stop-color="#606466"/>
<stop offset="1" stop-color="#606466" stop-opacity="0"/>
</linearGradient>
<linearGradient id="paint1_linear_122_1194" x1="11.3228" y1="4.52284" x2="6.03772" y2="1.35178" gradientUnits="userSpaceOnUse">
<stop stop-color="#606466"/>
<stop offset="1" stop-color="#606466" stop-opacity="0"/>
</linearGradient>
<clipPath id="clip0_122_1194">
<rect width="11.2749" height="12.5276" fill="white" transform="translate(0.0483398 0.373535)"/>
</clipPath>
</defs>
</svg>
