<svg width="12" height="13" viewBox="0 0 12 13" fill="none" xmlns="http://www.w3.org/2000/svg">
<g clip-path="url(#clip0_122_1408)">
<path d="M11.2105 7.07522V8.93545C11.2105 8.95689 11.2101 8.97833 11.2088 8.99977C11.2084 9.00397 11.2084 9.0086 11.208 9.0128C11.2071 9.02541 11.2063 9.03803 11.205 9.05106C11.2038 9.06367 11.2025 9.07628 11.2008 9.08889C11.1996 9.10108 11.1975 9.11328 11.1958 9.12505C11.1928 9.14312 11.1899 9.16078 11.1861 9.17886C11.184 9.19021 11.1815 9.20114 11.179 9.21249C11.1764 9.22216 11.1739 9.23225 11.1714 9.24234C11.1693 9.25158 11.1668 9.26041 11.1638 9.26966C11.1525 9.31044 11.1386 9.3508 11.1226 9.39031C11.1193 9.39872 11.1159 9.40755 11.1121 9.41596C11.1025 9.43908 11.0919 9.46178 11.0806 9.48406C11.0751 9.49541 11.0692 9.50634 11.0634 9.51727L11.0629 9.51685L8.95846 8.34564L5.6626 6.51106L8.14122 5.37012L11.1659 7.05084L11.2105 7.07522Z" fill="url(#paint0_linear_122_1408)"/>
<path d="M11.1719 3.60355L10.5304 4.09793L9.96242 4.99084L4.5625 1.98504L6.61443 0.543945L7.85458 1.26029H7.855L10.1276 2.57233L10.5981 2.8439C10.8877 3.01122 11.092 3.28699 11.1719 3.60355Z" fill="url(#paint1_linear_122_1408)"/>
<path d="M7.85517 1.26055L0.0480957 5.73308V3.9027C0.0480957 3.46592 0.280992 3.06234 0.658923 2.84416L5.01795 0.3277C5.39589 0.109517 5.86168 0.109517 6.24003 0.3277L7.85517 1.26055Z" fill="#21E786"/>
<path d="M11.2095 3.90189V4.5371L1.12472 10.2624L0.658923 9.99335C0.280992 9.77475 0.0480957 9.3716 0.0480957 8.93481V8.30086L10.1282 2.57178L10.5986 2.84335C10.9766 3.06153 11.2095 3.46511 11.2095 3.90189Z" fill="#21E786"/>
<path d="M11.21 7.02539V8.93607C11.21 8.95751 11.2095 8.97895 11.2083 9.00039C11.2078 9.00459 11.2079 9.00921 11.2074 9.01342C11.2066 9.02603 11.2057 9.03864 11.2045 9.05167C11.2032 9.06429 11.202 9.0769 11.2003 9.08951C11.199 9.1017 11.1969 9.11389 11.1952 9.12566C11.1923 9.14374 11.1894 9.1614 11.1856 9.17947C11.1835 9.19082 11.1809 9.20175 11.1784 9.2131C11.1759 9.22277 11.1734 9.23286 11.1709 9.24295C11.1688 9.2522 11.1662 9.26103 11.1633 9.27028C11.1519 9.31106 11.1381 9.35141 11.1221 9.39093C11.1187 9.39934 11.1154 9.40817 11.1116 9.41657C11.1019 9.43969 11.0914 9.4624 11.0801 9.48468C11.0746 9.49603 11.0687 9.50696 11.0628 9.51789C11.0561 9.53008 11.0494 9.54227 11.0422 9.55404C11.0355 9.56623 11.0279 9.578 11.0208 9.58977C11.0056 9.6129 10.9901 9.63602 10.9737 9.6583C10.9569 9.681 10.9396 9.70286 10.922 9.72388C10.9127 9.73481 10.9035 9.74532 10.8942 9.75541C10.885 9.76592 10.8753 9.77601 10.8657 9.7861C10.8463 9.80628 10.8261 9.82603 10.8051 9.84453C10.7971 9.8521 10.7887 9.85924 10.7803 9.86639C10.7753 9.87059 10.7702 9.8748 10.7652 9.879C10.7551 9.88783 10.7446 9.89624 10.7336 9.90423C10.7231 9.91263 10.7126 9.92062 10.7013 9.92819C10.6803 9.94374 10.6584 9.95846 10.6361 9.97233C10.6239 9.9799 10.6117 9.98746 10.5991 9.99461L6.24051 12.5111C5.86216 12.7293 5.39637 12.7293 5.01844 12.5111L3.42432 11.5908L8.95792 8.34626L11.1654 7.05146L11.21 7.02539Z" fill="#21E786"/>
<path d="M2.24001 1.93115V10.9065L1.12472 10.2629L0.658923 9.99382C0.280992 9.77522 0.0480957 9.37207 0.0480957 8.93528V3.90236C0.0480957 3.46558 0.280992 3.062 0.658923 2.84382L2.24001 1.93115Z" fill="#21E786"/>
</g>
<defs>
<linearGradient id="paint0_linear_122_1408" x1="10.8742" y1="8.44569" x2="6.39702" y2="5.37684" gradientUnits="userSpaceOnUse">
<stop stop-color="#00FFA3"/>
<stop offset="1" stop-color="#00FFA3" stop-opacity="0"/>
</linearGradient>
<linearGradient id="paint1_linear_122_1408" x1="10.1369" y1="4.19966" x2="6.08012" y2="1.57222" gradientUnits="userSpaceOnUse">
<stop stop-color="#00FFA3"/>
<stop offset="1" stop-color="#00FFA3" stop-opacity="0"/>
</linearGradient>
<clipPath id="clip0_122_1408">
<rect width="11.2749" height="12.5276" fill="white" transform="translate(0.0480957 0.164062)"/>
</clipPath>
</defs>
</svg>
