<svg width="95" height="72" viewBox="0 0 95 72" fill="none" xmlns="http://www.w3.org/2000/svg">
<rect x="-119" y="-30" width="330" height="210"/>
<g filter="url(#filter0_d_2_4413)">
<path d="M83.8677 4.80176H26.5377C23.6109 4.80176 21.2383 7.17439 21.2383 10.1012V44.2006C21.2383 47.1274 23.6109 49.5 26.5377 49.5H83.8677C86.7945 49.5 89.1671 47.1274 89.1671 44.2006V10.1012C89.1671 7.17439 86.7945 4.80176 83.8677 4.80176Z" fill="url(#paint0_linear_2_4413)"/>
<path d="M89.1671 11.9276H21.2383V17.46H89.1671V11.9276Z" fill="#FF5B15"/>
</g>
<path d="M64.8353 26.4707H7.50528C4.5785 26.4707 2.20587 28.8433 2.20587 31.7701V65.8695C2.20587 68.7963 4.5785 71.1689 7.50528 71.1689H64.8353C67.7621 71.1689 70.1347 68.7963 70.1347 65.8695V31.7701C70.1347 28.8433 67.7621 26.4707 64.8353 26.4707Z" fill="url(#paint1_linear_2_4413)"/>
<path d="M19.01 55.2968H11.0794C10.1467 55.2968 9.39061 56.0529 9.39061 56.9856V64.9162C9.39061 65.8489 10.1467 66.6051 11.0794 66.6051H19.01C19.9427 66.6051 20.6988 65.8489 20.6988 64.9162V56.9856C20.6988 56.0529 19.9427 55.2968 19.01 55.2968Z" fill="white"/>
<path d="M51.229 59.6595H24.9437C24.559 59.6595 24.1901 59.5067 23.918 59.2346C23.646 58.9626 23.4932 58.5936 23.4932 58.2089C23.4932 58.0187 23.5307 57.8303 23.6037 57.6546C23.6766 57.4789 23.7836 57.3193 23.9183 57.1851C24.0531 57.0508 24.2131 56.9444 24.389 56.8721C24.565 56.7998 24.7535 56.7629 24.9437 56.7636H51.229C51.6128 56.7636 51.981 56.9157 52.2529 57.1866C52.5248 57.4575 52.6782 57.8251 52.6796 58.2089C52.6796 58.5936 52.5268 58.9626 52.2548 59.2346C51.9827 59.5067 51.6138 59.6595 51.229 59.6595Z" fill="white"/>
<path d="M43.1555 65.1439H24.9437C24.559 65.1439 24.1901 64.991 23.918 64.719C23.646 64.447 23.4932 64.078 23.4932 63.6933C23.4932 63.503 23.5307 63.3147 23.6037 63.139C23.6766 62.9633 23.7836 62.8037 23.9183 62.6694C24.0531 62.5352 24.2131 62.4288 24.389 62.3565C24.565 62.2842 24.7535 62.2473 24.9437 62.248H43.1555C43.5388 62.248 43.9064 62.4003 44.1775 62.6713C44.4485 62.9424 44.6008 63.31 44.6008 63.6933C44.6008 64.0771 44.4487 64.4453 44.1778 64.7171C43.9069 64.989 43.5393 65.1425 43.1555 65.1439Z" fill="white"/>
<defs>
<filter id="filter0_d_2_4413" x="16.2383" y="-0.198242" width="77.9288" height="54.6982" filterUnits="userSpaceOnUse" color-interpolation-filters="sRGB">
<feFlood flood-opacity="0" result="BackgroundImageFix"/>
<feColorMatrix in="SourceAlpha" type="matrix" values="0 0 0 0 0 0 0 0 0 0 0 0 0 0 0 0 0 0 127 0" result="hardAlpha"/>
<feOffset/>
<feGaussianBlur stdDeviation="2.5"/>
<feComposite in2="hardAlpha" operator="out"/>
<feColorMatrix type="matrix" values="0 0 0 0 1 0 0 0 0 0.482353 0 0 0 0 0.152941 0 0 0 1 0"/>
<feBlend mode="normal" in2="BackgroundImageFix" result="effect1_dropShadow_2_4413"/>
<feBlend mode="normal" in="SourceGraphic" in2="effect1_dropShadow_2_4413" result="shape"/>
</filter>
<linearGradient id="paint0_linear_2_4413" x1="55.2" y1="4.80176" x2="55.2" y2="49.5" gradientUnits="userSpaceOnUse">
<stop stop-color="#FF9A17"/>
<stop offset="0.17" stop-color="#FF921B"/>
<stop offset="0.44" stop-color="#FF7B27"/>
<stop offset="0.76" stop-color="#FF5739"/>
<stop offset="1" stop-color="#FF3849"/>
</linearGradient>
<linearGradient id="paint1_linear_2_4413" x1="36.1729" y1="26.4707" x2="36.1729" y2="71.1636" gradientUnits="userSpaceOnUse">
<stop stop-color="white" stop-opacity="0.9"/>
<stop offset="0.01" stop-color="white" stop-opacity="0.84"/>
<stop offset="0.03" stop-color="white" stop-opacity="0.73"/>
<stop offset="0.05" stop-color="white" stop-opacity="0.65"/>
<stop offset="0.08" stop-color="white" stop-opacity="0.58"/>
<stop offset="0.11" stop-color="white" stop-opacity="0.53"/>
<stop offset="0.16" stop-color="white" stop-opacity="0.51"/>
<stop offset="0.28" stop-color="white" stop-opacity="0.5"/>
<stop offset="0.46" stop-color="#FEFEFE" stop-opacity="0.48"/>
<stop offset="0.67" stop-color="#FAFAFA" stop-opacity="0.43"/>
<stop offset="0.89" stop-color="#F3F3F3" stop-opacity="0.35"/>
<stop offset="1" stop-color="#EFEFEF" stop-opacity="0.3"/>
</linearGradient>
</defs>
</svg>
