<svg width="78" height="71" viewBox="0 0 78 71" fill="none" xmlns="http://www.w3.org/2000/svg">
<g clip-path="url(#clip0_2_4484)">
<rect x="-127" y="-29" width="333" height="243"/>
<g filter="url(#filter0_d_2_4484)">
<path d="M54.7897 15.9887C55.8419 9.72803 51.6196 3.79986 45.359 2.7477C39.0983 1.69553 33.1702 5.91782 32.118 12.1784C31.0658 18.4391 35.2881 24.3672 41.5487 25.4194C47.8094 26.4716 53.7375 22.2493 54.7897 15.9887Z" fill="url(#paint0_linear_2_4484)"/>
</g>
<g style="mix-blend-mode:multiply">
<path d="M46.6167 22.3358C51.1694 20.5937 53.4477 15.4907 51.7056 10.938C49.9635 6.38536 44.8605 4.10697 40.3078 5.84911C35.7551 7.59125 33.4767 12.6942 35.2189 17.2469C36.961 21.7996 42.064 24.078 46.6167 22.3358Z" fill="#FFEBB5"/>
</g>
<g filter="url(#filter1_d_2_4484)">
<path d="M41.4587 54.6779C47.8071 54.6779 52.9535 49.5315 52.9535 43.1831C52.9535 36.8346 47.8071 31.6882 41.4587 31.6882C35.1103 31.6882 29.9639 36.8346 29.9639 43.1831C29.9639 49.5315 35.1103 54.6779 41.4587 54.6779Z" fill="url(#paint1_linear_2_4484)"/>
</g>
<g style="mix-blend-mode:multiply">
<path d="M41.4591 52.0096C46.3337 52.0096 50.2854 48.058 50.2854 43.1833C50.2854 38.3087 46.3337 34.3571 41.4591 34.3571C36.5845 34.3571 32.6328 38.3087 32.6328 43.1833C32.6328 48.058 36.5845 52.0096 41.4591 52.0096Z" fill="#FFEBB5"/>
</g>
<path d="M77.2972 40.0713C77.2479 39.9482 77.152 39.8496 77.0304 39.7968C76.9088 39.744 76.7713 39.7413 76.6477 39.7893C75.3839 40.2928 74.3065 40.2425 73.5009 39.6886C73.7564 39.3756 73.9807 39.0383 74.1705 38.6816C75.1221 36.8489 74.674 35.8167 74.3417 35.3585C74.1451 35.098 73.8779 34.8993 73.5718 34.7859C73.2657 34.6726 72.9336 34.6494 72.6147 34.7191C72.2782 34.7955 71.971 34.968 71.7306 35.2155C71.4902 35.4631 71.3268 35.7752 71.2603 36.1138C71.1443 36.735 71.1563 37.3734 71.2957 37.9899C71.4351 38.6063 71.6989 39.1878 72.0709 39.6987C71.3482 40.2372 70.4505 40.4868 69.5535 40.3985C69.3218 27.2724 55.6116 16.6889 38.7294 16.6889C35.6681 16.6889 29.9233 17.6959 29.9233 17.6959C29.9233 17.6959 23.3778 10.7074 20.7294 12.4343C16.787 15.0123 16.8273 23.8234 16.8273 23.8234C9.90926 28.3549 8.36353 36.5569 8.36353 36.5569L3.681 37.6444L0.947021 42.483C5.23046 50.4874 11.998 56.8839 20.2309 60.7096L16.8273 69.2086H25.568L26.4844 63.1012C29.821 64.1418 33.2867 64.7112 36.7809 64.7929L36.7255 64.7325C37.3901 64.7678 38.0547 64.7929 38.7395 64.7929C42.2374 64.7993 45.7199 64.3301 49.0914 63.3983L49.9926 69.1834H58.7383L55.4404 60.9462C63.7381 56.7773 69.3067 49.5924 69.5937 41.3804H69.9059C70.9538 41.3971 71.9751 41.0502 72.796 40.3985C73.6016 41.0229 74.956 41.5264 77.0253 40.7157C77.1453 40.6645 77.2408 40.5687 77.2915 40.4484C77.3422 40.3282 77.3443 40.193 77.2972 40.0713ZM72.7658 38.9585C72.2475 38.1855 72.0506 37.241 72.217 36.3253C72.2399 36.1733 72.3078 36.0317 72.4119 35.9187C72.516 35.8056 72.6515 35.7263 72.801 35.6909H72.9521C73.0616 35.6905 73.1696 35.7158 73.2676 35.7647C73.3655 35.8137 73.4506 35.885 73.516 35.9728C73.8533 36.4109 73.7526 37.2517 73.2491 38.2134C73.1187 38.4748 72.9654 38.7242 72.7909 38.9585H72.7658Z" fill="url(#paint2_linear_2_4484)"/>
<path d="M14.0937 36.4612C14.7972 36.4612 15.3675 35.6542 15.3675 34.6587C15.3675 33.6632 14.7972 32.8561 14.0937 32.8561C13.3902 32.8561 12.8198 33.6632 12.8198 34.6587C12.8198 35.6542 13.3902 36.4612 14.0937 36.4612Z" fill="white"/>
<path d="M53.9406 25.2389C53.8233 25.2391 53.7077 25.2115 53.6033 25.1583C43.0298 19.8716 32.3053 23.2047 32.1996 23.24C32.1051 23.2704 32.0054 23.2819 31.9065 23.2738C31.8075 23.2657 31.711 23.2382 31.6227 23.1929C31.5343 23.1475 31.4557 23.0852 31.3915 23.0095C31.3272 22.9338 31.2784 22.8461 31.248 22.7516C31.2176 22.657 31.2061 22.5574 31.2142 22.4584C31.2223 22.3594 31.2498 22.263 31.2951 22.1746C31.3405 22.0863 31.4028 22.0077 31.4785 21.9434C31.5542 21.8791 31.6418 21.8304 31.7364 21.8C32.1996 21.654 43.1456 18.2503 54.2779 23.814C54.4296 23.8903 54.5512 24.0155 54.623 24.1694C54.6947 24.3232 54.7126 24.4968 54.6736 24.6621C54.6346 24.8273 54.5411 24.9746 54.4081 25.0802C54.2751 25.1858 54.1104 25.2434 53.9406 25.2439V25.2389Z" fill="white"/>
<g style="mix-blend-mode:overlay">
<path style="mix-blend-mode:overlay" d="M3.1978 38.0518C-0.784853 35.2977 -3.79072 32.7349 -3.5138 32.327C-3.23687 31.9192 0.22717 33.8375 4.21486 36.5816C8.20255 39.3256 11.2084 41.8985 10.9265 42.3063C10.6445 42.7142 7.19557 40.8059 3.1978 38.0518Z" fill="url(#paint3_radial_2_4484)"/>
<path style="mix-blend-mode:hard-light" d="M3.53012 37.5743C2.78494 37.0708 2.26131 36.5271 2.35698 36.3861C2.45264 36.2451 3.1374 36.5472 3.86747 37.0608C4.59754 37.5743 5.14131 38.108 5.04565 38.249C4.94998 38.39 4.28033 38.0879 3.53012 37.5743Z" fill="url(#paint4_radial_2_4484)"/>
<path style="mix-blend-mode:overlay" d="M4.5316 37.886C1.83285 41.7881 -0.719866 44.6983 -1.17301 44.3811C-1.62616 44.0639 0.186426 40.6502 2.88517 36.7481C5.58391 32.846 8.13663 29.9358 8.58978 30.253C9.04292 30.5702 7.2253 33.989 4.5316 37.886Z" fill="url(#paint5_radial_2_4484)"/>
<path style="mix-blend-mode:hard-light" d="M3.99312 37.5136C3.48962 38.2588 2.93073 38.7774 2.77465 38.6667C2.61857 38.5559 2.90556 37.8661 3.42417 37.1209C3.94277 36.3757 4.4815 35.8571 4.64262 35.9679C4.80374 36.0787 4.50669 36.7685 3.99312 37.5136Z" fill="url(#paint6_radial_2_4484)"/>
<g style="mix-blend-mode:overlay" opacity="0.5">
<path style="mix-blend-mode:overlay" d="M3.1978 38.0518C-0.784853 35.2977 -3.79072 32.7349 -3.5138 32.327C-3.23687 31.9192 0.22717 33.8375 4.21486 36.5816C8.20255 39.3256 11.2084 41.8985 10.9265 42.3063C10.6445 42.7142 7.19557 40.8059 3.1978 38.0518Z" fill="url(#paint7_radial_2_4484)"/>
<path style="mix-blend-mode:hard-light" d="M3.53012 37.5743C2.78494 37.0708 2.26131 36.5271 2.35698 36.3861C2.45264 36.2451 3.1374 36.5472 3.86747 37.0608C4.59754 37.5743 5.14131 38.108 5.04565 38.249C4.94998 38.39 4.28033 38.0879 3.53012 37.5743Z" fill="url(#paint8_radial_2_4484)"/>
<path style="mix-blend-mode:overlay" d="M4.5316 37.886C1.83285 41.7881 -0.719866 44.6983 -1.17301 44.3811C-1.62616 44.0639 0.186426 40.6502 2.88517 36.7481C5.58391 32.846 8.13663 29.9358 8.58978 30.253C9.04292 30.5702 7.2253 33.989 4.5316 37.886Z" fill="url(#paint9_radial_2_4484)"/>
<path style="mix-blend-mode:hard-light" d="M3.99312 37.5136C3.48962 38.2588 2.93073 38.7774 2.77465 38.6667C2.61857 38.5559 2.90556 37.8661 3.42417 37.1209C3.94277 36.3757 4.4815 35.8571 4.64262 35.9679C4.80374 36.0787 4.50669 36.7685 3.99312 37.5136Z" fill="url(#paint10_radial_2_4484)"/>
</g>
</g>
</g>
<defs>
<filter id="filter0_d_2_4484" x="27.9572" y="-1.41309" width="30.9933" height="30.9933" filterUnits="userSpaceOnUse" color-interpolation-filters="sRGB">
<feFlood flood-opacity="0" result="BackgroundImageFix"/>
<feColorMatrix in="SourceAlpha" type="matrix" values="0 0 0 0 0 0 0 0 0 0 0 0 0 0 0 0 0 0 127 0" result="hardAlpha"/>
<feOffset/>
<feGaussianBlur stdDeviation="2"/>
<feComposite in2="hardAlpha" operator="out"/>
<feColorMatrix type="matrix" values="0 0 0 0 1 0 0 0 0 0.890196 0 0 0 0 0.588235 0 0 0 1 0"/>
<feBlend mode="normal" in2="BackgroundImageFix" result="effect1_dropShadow_2_4484"/>
<feBlend mode="normal" in="SourceGraphic" in2="effect1_dropShadow_2_4484" result="shape"/>
</filter>
<filter id="filter1_d_2_4484" x="25.9639" y="27.6882" width="30.9896" height="30.9896" filterUnits="userSpaceOnUse" color-interpolation-filters="sRGB">
<feFlood flood-opacity="0" result="BackgroundImageFix"/>
<feColorMatrix in="SourceAlpha" type="matrix" values="0 0 0 0 0 0 0 0 0 0 0 0 0 0 0 0 0 0 127 0" result="hardAlpha"/>
<feOffset/>
<feGaussianBlur stdDeviation="2"/>
<feComposite in2="hardAlpha" operator="out"/>
<feColorMatrix type="matrix" values="0 0 0 0 1 0 0 0 0 0.890196 0 0 0 0 0.588235 0 0 0 1 0"/>
<feBlend mode="normal" in2="BackgroundImageFix" result="effect1_dropShadow_2_4484"/>
<feBlend mode="normal" in="SourceGraphic" in2="effect1_dropShadow_2_4484" result="shape"/>
</filter>
<linearGradient id="paint0_linear_2_4484" x1="43.448" y1="2.59397" x2="43.448" y2="25.5886" gradientUnits="userSpaceOnUse">
<stop stop-color="#FFEBB5"/>
<stop offset="0.11" stop-color="#FFE9AD"/>
<stop offset="0.28" stop-color="#FFE396"/>
<stop offset="0.49" stop-color="#FFD971"/>
<stop offset="0.74" stop-color="#FFCC3E"/>
<stop offset="1" stop-color="#FFBC00"/>
</linearGradient>
<linearGradient id="paint1_linear_2_4484" x1="41.4587" y1="31.6882" x2="41.4587" y2="54.6779" gradientUnits="userSpaceOnUse">
<stop stop-color="#FFEBB5"/>
<stop offset="0.11" stop-color="#FFE9AD"/>
<stop offset="0.28" stop-color="#FFE396"/>
<stop offset="0.49" stop-color="#FFD971"/>
<stop offset="0.74" stop-color="#FFCC3E"/>
<stop offset="1" stop-color="#FFBC00"/>
</linearGradient>
<linearGradient id="paint2_linear_2_4484" x1="39.1523" y1="12.1373" x2="39.1523" y2="69.1834" gradientUnits="userSpaceOnUse">
<stop stop-color="white" stop-opacity="0.9"/>
<stop offset="0.04" stop-color="white" stop-opacity="0.83"/>
<stop offset="0.12" stop-color="white" stop-opacity="0.68"/>
<stop offset="0.19" stop-color="white" stop-opacity="0.58"/>
<stop offset="0.26" stop-color="white" stop-opacity="0.52"/>
<stop offset="0.32" stop-color="white" stop-opacity="0.5"/>
<stop offset="0.49" stop-color="#FEFEFE" stop-opacity="0.48"/>
<stop offset="0.69" stop-color="#FAFAFA" stop-opacity="0.43"/>
<stop offset="0.9" stop-color="#F3F3F3" stop-opacity="0.35"/>
<stop offset="1" stop-color="#EFEFEF" stop-opacity="0.3"/>
</linearGradient>
<radialGradient id="paint3_radial_2_4484" cx="0" cy="0" r="1" gradientUnits="userSpaceOnUse" gradientTransform="translate(-43.8879 128.14) rotate(124.509) scale(0.919934 8.7528)">
<stop stop-color="white"/>
<stop offset="0.05" stop-color="white" stop-opacity="0.89"/>
<stop offset="0.15" stop-color="white" stop-opacity="0.69"/>
<stop offset="0.26" stop-color="white" stop-opacity="0.5"/>
<stop offset="0.37" stop-color="white" stop-opacity="0.35"/>
<stop offset="0.48" stop-color="white" stop-opacity="0.22"/>
<stop offset="0.6" stop-color="white" stop-opacity="0.12"/>
<stop offset="0.72" stop-color="white" stop-opacity="0.05"/>
<stop offset="0.85" stop-color="white" stop-opacity="0.01"/>
<stop offset="1" stop-color="white" stop-opacity="0"/>
</radialGradient>
<radialGradient id="paint4_radial_2_4484" cx="0" cy="0" r="1" gradientUnits="userSpaceOnUse" gradientTransform="translate(-44.7611 124.322) rotate(124.508) scale(0.318702 1.63916)">
<stop stop-color="white"/>
<stop offset="0.05" stop-color="white" stop-opacity="0.89"/>
<stop offset="0.15" stop-color="white" stop-opacity="0.69"/>
<stop offset="0.26" stop-color="white" stop-opacity="0.5"/>
<stop offset="0.37" stop-color="white" stop-opacity="0.35"/>
<stop offset="0.48" stop-color="white" stop-opacity="0.22"/>
<stop offset="0.6" stop-color="white" stop-opacity="0.12"/>
<stop offset="0.72" stop-color="white" stop-opacity="0.05"/>
<stop offset="0.85" stop-color="white" stop-opacity="0.01"/>
<stop offset="1" stop-color="white" stop-opacity="0"/>
</radialGradient>
<radialGradient id="paint5_radial_2_4484" cx="0" cy="0" r="1" gradientUnits="userSpaceOnUse" gradientTransform="translate(-50.8805 38.3725) rotate(35.2176) scale(0.985893 8.5816)">
<stop stop-color="white"/>
<stop offset="0.05" stop-color="white" stop-opacity="0.89"/>
<stop offset="0.15" stop-color="white" stop-opacity="0.69"/>
<stop offset="0.26" stop-color="white" stop-opacity="0.5"/>
<stop offset="0.37" stop-color="white" stop-opacity="0.35"/>
<stop offset="0.48" stop-color="white" stop-opacity="0.22"/>
<stop offset="0.6" stop-color="white" stop-opacity="0.12"/>
<stop offset="0.72" stop-color="white" stop-opacity="0.05"/>
<stop offset="0.85" stop-color="white" stop-opacity="0.01"/>
<stop offset="1" stop-color="white" stop-opacity="0"/>
</radialGradient>
<radialGradient id="paint6_radial_2_4484" cx="0" cy="0" r="1" gradientUnits="userSpaceOnUse" gradientTransform="translate(-51.4957 38.2258) rotate(35.2176) scale(0.341552 1.63914)">
<stop stop-color="white"/>
<stop offset="0.05" stop-color="white" stop-opacity="0.89"/>
<stop offset="0.15" stop-color="white" stop-opacity="0.69"/>
<stop offset="0.26" stop-color="white" stop-opacity="0.5"/>
<stop offset="0.37" stop-color="white" stop-opacity="0.35"/>
<stop offset="0.48" stop-color="white" stop-opacity="0.22"/>
<stop offset="0.6" stop-color="white" stop-opacity="0.12"/>
<stop offset="0.72" stop-color="white" stop-opacity="0.05"/>
<stop offset="0.85" stop-color="white" stop-opacity="0.01"/>
<stop offset="1" stop-color="white" stop-opacity="0"/>
</radialGradient>
<radialGradient id="paint7_radial_2_4484" cx="0" cy="0" r="1" gradientUnits="userSpaceOnUse" gradientTransform="translate(-43.8879 128.14) rotate(124.509) scale(0.919934 8.7528)">
<stop stop-color="white"/>
<stop offset="0.05" stop-color="white" stop-opacity="0.89"/>
<stop offset="0.15" stop-color="white" stop-opacity="0.69"/>
<stop offset="0.26" stop-color="white" stop-opacity="0.5"/>
<stop offset="0.37" stop-color="white" stop-opacity="0.35"/>
<stop offset="0.48" stop-color="white" stop-opacity="0.22"/>
<stop offset="0.6" stop-color="white" stop-opacity="0.12"/>
<stop offset="0.72" stop-color="white" stop-opacity="0.05"/>
<stop offset="0.85" stop-color="white" stop-opacity="0.01"/>
<stop offset="1" stop-color="white" stop-opacity="0"/>
</radialGradient>
<radialGradient id="paint8_radial_2_4484" cx="0" cy="0" r="1" gradientUnits="userSpaceOnUse" gradientTransform="translate(-44.7611 124.322) rotate(124.508) scale(0.318702 1.63916)">
<stop stop-color="white"/>
<stop offset="0.05" stop-color="white" stop-opacity="0.89"/>
<stop offset="0.15" stop-color="white" stop-opacity="0.69"/>
<stop offset="0.26" stop-color="white" stop-opacity="0.5"/>
<stop offset="0.37" stop-color="white" stop-opacity="0.35"/>
<stop offset="0.48" stop-color="white" stop-opacity="0.22"/>
<stop offset="0.6" stop-color="white" stop-opacity="0.12"/>
<stop offset="0.72" stop-color="white" stop-opacity="0.05"/>
<stop offset="0.85" stop-color="white" stop-opacity="0.01"/>
<stop offset="1" stop-color="white" stop-opacity="0"/>
</radialGradient>
<radialGradient id="paint9_radial_2_4484" cx="0" cy="0" r="1" gradientUnits="userSpaceOnUse" gradientTransform="translate(-50.8805 38.3725) rotate(35.2176) scale(0.985893 8.5816)">
<stop stop-color="white"/>
<stop offset="0.05" stop-color="white" stop-opacity="0.89"/>
<stop offset="0.15" stop-color="white" stop-opacity="0.69"/>
<stop offset="0.26" stop-color="white" stop-opacity="0.5"/>
<stop offset="0.37" stop-color="white" stop-opacity="0.35"/>
<stop offset="0.48" stop-color="white" stop-opacity="0.22"/>
<stop offset="0.6" stop-color="white" stop-opacity="0.12"/>
<stop offset="0.72" stop-color="white" stop-opacity="0.05"/>
<stop offset="0.85" stop-color="white" stop-opacity="0.01"/>
<stop offset="1" stop-color="white" stop-opacity="0"/>
</radialGradient>
<radialGradient id="paint10_radial_2_4484" cx="0" cy="0" r="1" gradientUnits="userSpaceOnUse" gradientTransform="translate(-51.4957 38.2258) rotate(35.2176) scale(0.341552 1.63914)">
<stop stop-color="white"/>
<stop offset="0.05" stop-color="white" stop-opacity="0.89"/>
<stop offset="0.15" stop-color="white" stop-opacity="0.69"/>
<stop offset="0.26" stop-color="white" stop-opacity="0.5"/>
<stop offset="0.37" stop-color="white" stop-opacity="0.35"/>
<stop offset="0.48" stop-color="white" stop-opacity="0.22"/>
<stop offset="0.6" stop-color="white" stop-opacity="0.12"/>
<stop offset="0.72" stop-color="white" stop-opacity="0.05"/>
<stop offset="0.85" stop-color="white" stop-opacity="0.01"/>
<stop offset="1" stop-color="white" stop-opacity="0"/>
</radialGradient>
<clipPath id="clip0_2_4484">
<rect width="330" height="210" fill="white" transform="translate(-127 -29)"/>
</clipPath>
</defs>
</svg>
