<svg width="59" height="73" viewBox="0 0 59 73" fill="none" xmlns="http://www.w3.org/2000/svg">
<g filter="url(#filter0_d_2_4452)">
<path d="M54.5677 14.2458C54.5677 12.9811 54.0653 11.7683 53.1711 10.8741C52.2769 9.9799 51.0641 9.47754 49.7995 9.47754H14.3145V68.2744L17.1754 66.3671L20.0363 68.2744L22.8972 66.3671L25.7582 68.2744L28.6191 66.3671L31.48 68.2744L34.3409 66.3671L37.2019 68.2744L40.0628 66.3671L42.9237 68.2744L45.7847 66.3671L48.6456 68.2744L51.5065 66.3671L54.3674 68.2744L54.5677 14.2458Z" fill="url(#paint0_linear_2_4452)"/>
</g>
<path d="M0.930603 54.4799C0.930603 55.7445 1.43298 56.9573 2.32719 57.8515C3.2214 58.7457 4.43421 59.2481 5.69881 59.2481H41.1839V0.456055L38.3229 2.36334L35.462 0.456055L32.6011 2.36334L29.7401 0.456055L26.8792 2.36334L24.0183 0.456055L21.1574 2.36334L18.2964 0.456055L15.4355 2.36334L12.5746 0.456055L9.71366 2.36334L6.85273 0.456055L3.9918 2.36334L1.13087 0.456055L0.930603 54.4799Z" fill="url(#paint1_linear_2_4452)"/>
<path d="M35.982 13.5112H6.13296C5.95212 13.5112 5.77869 13.4393 5.65081 13.3115C5.52294 13.1836 5.45111 13.0102 5.45111 12.8293C5.45111 12.6485 5.52294 12.4751 5.65081 12.3472C5.77869 12.2193 5.95212 12.1475 6.13296 12.1475H35.982C36.1628 12.1475 36.3362 12.2193 36.4641 12.3472C36.592 12.4751 36.6638 12.6485 36.6638 12.8293C36.6638 13.0102 36.592 13.1836 36.4641 13.3115C36.3362 13.4393 36.1628 13.5112 35.982 13.5112Z" fill="white"/>
<path d="M35.982 19.8528H6.13298C5.95214 19.8528 5.7787 19.781 5.65083 19.6531C5.52296 19.5253 5.45113 19.3518 5.45113 19.171C5.4505 19.0811 5.46767 18.9919 5.50165 18.9086C5.53563 18.8253 5.58576 18.7496 5.64914 18.6858C5.71252 18.6219 5.7879 18.5713 5.87094 18.5367C5.95398 18.5022 6.04303 18.4844 6.13298 18.4844H35.982C36.0719 18.4844 36.161 18.5022 36.244 18.5367C36.3271 18.5713 36.4024 18.6219 36.4658 18.6858C36.5292 18.7496 36.5793 18.8253 36.6133 18.9086C36.6473 18.9919 36.6645 19.0811 36.6638 19.171C36.6638 19.3518 36.592 19.5253 36.4641 19.6531C36.3363 19.781 36.1628 19.8528 35.982 19.8528Z" fill="white"/>
<path d="M24.8959 32.5317H6.13296C6.04342 32.5317 5.95475 32.514 5.87203 32.4798C5.7893 32.4455 5.71413 32.3953 5.65081 32.332C5.5875 32.2687 5.53728 32.1935 5.50302 32.1108C5.46875 32.028 5.45111 31.9394 5.45111 31.8498C5.45111 31.669 5.52294 31.4955 5.65081 31.3677C5.77869 31.2398 5.95212 31.168 6.13296 31.168H24.8959C25.0767 31.168 25.2502 31.2398 25.378 31.3677C25.5059 31.4955 25.5777 31.669 25.5777 31.8498C25.5777 31.9394 25.5601 32.028 25.5258 32.1108C25.4916 32.1935 25.4413 32.2687 25.378 32.332C25.3147 32.3953 25.2395 32.4455 25.1568 32.4798C25.0741 32.514 24.9854 32.5317 24.8959 32.5317Z" fill="white"/>
<path d="M24.8959 38.8735H6.13296C5.95212 38.8735 5.77869 38.8016 5.65081 38.6738C5.52294 38.5459 5.45111 38.3725 5.45111 38.1916C5.45111 38.0108 5.52294 37.8373 5.65081 37.7095C5.77869 37.5816 5.95212 37.5098 6.13296 37.5098H24.8959C25.0767 37.5098 25.2502 37.5816 25.378 37.7095C25.5059 37.8373 25.5777 38.0108 25.5777 38.1916C25.5777 38.3725 25.5059 38.5459 25.378 38.6738C25.2502 38.8016 25.0767 38.8735 24.8959 38.8735Z" fill="white"/>
<path d="M24.8959 45.2152H6.13298C5.95214 45.2152 5.7787 45.1433 5.65083 45.0154C5.52296 44.8876 5.45113 44.7141 5.45113 44.5333C5.4505 44.4434 5.46767 44.3542 5.50165 44.2709C5.53563 44.1876 5.58576 44.1119 5.64914 44.0481C5.71252 43.9843 5.7879 43.9336 5.87094 43.899C5.95398 43.8645 6.04303 43.8467 6.13298 43.8467H24.8959C24.9858 43.8467 25.0749 43.8645 25.1579 43.899C25.241 43.9336 25.3163 43.9843 25.3797 44.0481C25.4431 44.1119 25.4932 44.1876 25.5272 44.2709C25.5612 44.3542 25.5784 44.4434 25.5777 44.5333C25.5777 44.7141 25.5059 44.8876 25.378 45.0154C25.2502 45.1433 25.0767 45.2152 24.8959 45.2152Z" fill="white"/>
<path d="M24.8959 51.5522H6.13296C5.95212 51.5522 5.77869 51.4803 5.65081 51.3525C5.52294 51.2246 5.45111 51.0512 5.45111 50.8703C5.45111 50.6895 5.52294 50.5161 5.65081 50.3882C5.77869 50.2603 5.95212 50.1885 6.13296 50.1885H24.8959C25.0767 50.1885 25.2502 50.2603 25.378 50.3882C25.5059 50.5161 25.5777 50.6895 25.5777 50.8703C25.5777 51.0512 25.5059 51.2246 25.378 51.3525C25.2502 51.4803 25.0767 51.5522 24.8959 51.5522Z" fill="white"/>
<path d="M35.9819 32.5317H28.7628C28.6733 32.5317 28.5846 32.514 28.5019 32.4798C28.4192 32.4455 28.344 32.3953 28.2807 32.332C28.2174 32.2687 28.1672 32.1935 28.1329 32.1108C28.0986 32.028 28.081 31.9394 28.081 31.8498C28.081 31.669 28.1528 31.4955 28.2807 31.3677C28.4086 31.2398 28.582 31.168 28.7628 31.168H35.9819C36.1628 31.168 36.3362 31.2398 36.4641 31.3677C36.5919 31.4955 36.6638 31.669 36.6638 31.8498C36.6638 31.9394 36.6461 32.028 36.6119 32.1108C36.5776 32.1935 36.5274 32.2687 36.4641 32.332C36.4008 32.3953 36.3256 32.4455 36.2429 32.4798C36.1601 32.514 36.0715 32.5317 35.9819 32.5317Z" fill="white"/>
<path d="M35.9819 38.8735H28.7628C28.582 38.8735 28.4086 38.8016 28.2807 38.6738C28.1528 38.5459 28.081 38.3725 28.081 38.1916C28.081 38.0108 28.1528 37.8373 28.2807 37.7095C28.4086 37.5816 28.582 37.5098 28.7628 37.5098H35.9819C36.1628 37.5098 36.3362 37.5816 36.4641 37.7095C36.5919 37.8373 36.6638 38.0108 36.6638 38.1916C36.6638 38.3725 36.5919 38.5459 36.4641 38.6738C36.3362 38.8016 36.1628 38.8735 35.9819 38.8735Z" fill="white"/>
<path d="M35.9819 45.2152H28.7629C28.582 45.2152 28.4086 45.1433 28.2807 45.0154C28.1529 44.8876 28.081 44.7141 28.081 44.5333C28.0804 44.4434 28.0976 44.3542 28.1315 44.2709C28.1655 44.1876 28.2156 44.1119 28.279 44.0481C28.3424 43.9843 28.4178 43.9336 28.5008 43.899C28.5839 43.8645 28.6729 43.8467 28.7629 43.8467H35.9819C36.0719 43.8467 36.1609 43.8645 36.244 43.899C36.327 43.9336 36.4024 43.9843 36.4658 44.0481C36.5292 44.1119 36.5793 44.1876 36.6133 44.2709C36.6473 44.3542 36.6644 44.4434 36.6638 44.5333C36.6638 44.7141 36.592 44.8876 36.4641 45.0154C36.3362 45.1433 36.1628 45.2152 35.9819 45.2152Z" fill="white"/>
<path d="M35.9819 51.5522H28.7628C28.582 51.5522 28.4086 51.4803 28.2807 51.3525C28.1528 51.2246 28.081 51.0512 28.081 50.8703C28.081 50.6895 28.1528 50.5161 28.2807 50.3882C28.4086 50.2603 28.582 50.1885 28.7628 50.1885H35.9819C36.1628 50.1885 36.3362 50.2603 36.4641 50.3882C36.5919 50.5161 36.6638 50.6895 36.6638 50.8703C36.6638 51.0512 36.5919 51.2246 36.4641 51.3525C36.3362 51.4803 36.1628 51.5522 35.9819 51.5522Z" fill="white"/>
<defs>
<filter id="filter0_d_2_4452" x="9.31445" y="4.47754" width="50.2532" height="68.7969" filterUnits="userSpaceOnUse" color-interpolation-filters="sRGB">
<feFlood flood-opacity="0" result="BackgroundImageFix"/>
<feColorMatrix in="SourceAlpha" type="matrix" values="0 0 0 0 0 0 0 0 0 0 0 0 0 0 0 0 0 0 127 0" result="hardAlpha"/>
<feOffset/>
<feGaussianBlur stdDeviation="2.5"/>
<feComposite in2="hardAlpha" operator="out"/>
<feColorMatrix type="matrix" values="0 0 0 0 0.411765 0 0 0 0 0.752941 0 0 0 0 0.960784 0 0 0 1 0"/>
<feBlend mode="normal" in2="BackgroundImageFix" result="effect1_dropShadow_2_4452"/>
<feBlend mode="normal" in="SourceGraphic" in2="effect1_dropShadow_2_4452" result="shape"/>
</filter>
<linearGradient id="paint0_linear_2_4452" x1="34.4411" y1="3.87489" x2="34.4411" y2="62.6717" gradientUnits="userSpaceOnUse">
<stop stop-color="#E3F1FF"/>
<stop offset="0.2" stop-color="#A2D7FA"/>
<stop offset="0.41" stop-color="#69C0F5"/>
<stop offset="0.6" stop-color="#3BAEF1"/>
<stop offset="0.77" stop-color="#1BA1EE"/>
<stop offset="0.91" stop-color="#0799ED"/>
<stop offset="1" stop-color="#0096EC"/>
</linearGradient>
<linearGradient id="paint1_linear_2_4452" x1="21.0572" y1="-0.769376" x2="21.0572" y2="58.0274" gradientUnits="userSpaceOnUse">
<stop stop-color="white" stop-opacity="0.9"/>
<stop offset="0.01" stop-color="white" stop-opacity="0.84"/>
<stop offset="0.03" stop-color="white" stop-opacity="0.73"/>
<stop offset="0.05" stop-color="white" stop-opacity="0.65"/>
<stop offset="0.08" stop-color="white" stop-opacity="0.58"/>
<stop offset="0.11" stop-color="white" stop-opacity="0.53"/>
<stop offset="0.16" stop-color="white" stop-opacity="0.51"/>
<stop offset="0.28" stop-color="white" stop-opacity="0.5"/>
<stop offset="0.46" stop-color="#FEFEFE" stop-opacity="0.48"/>
<stop offset="0.67" stop-color="#FAFAFA" stop-opacity="0.43"/>
<stop offset="0.89" stop-color="#F3F3F3" stop-opacity="0.35"/>
<stop offset="1" stop-color="#EFEFEF" stop-opacity="0.3"/>
</linearGradient>
</defs>
</svg>
