<svg width="68" height="69" viewBox="0 0 68 69" fill="none" xmlns="http://www.w3.org/2000/svg">
<g clip-path="url(#clip0_2_4512)">
<rect x="-129" y="-29" width="333" height="243" />
<g filter="url(#filter0_d_2_4512)">
<path d="M52.6084 3.67578H26.3595C24.5774 3.67578 23.1328 5.1204 23.1328 6.90244V36.8313C23.1328 38.6134 24.5774 40.058 26.3595 40.058H52.6084C54.3904 40.058 55.835 38.6134 55.835 36.8313V6.90244C55.835 5.1204 54.3904 3.67578 52.6084 3.67578Z" fill="url(#paint0_linear_2_4512)"/>
</g>
<path d="M62.795 19.3604H12.6172L21.555 49.267H56.0216C56.7879 49.2672 57.5338 49.0198 58.148 48.5617C58.7623 48.1036 59.2121 47.4593 59.4305 46.7248L66.2039 23.9293C66.3616 23.3986 66.3933 22.8384 66.2964 22.2934C66.1995 21.7483 65.9766 21.2334 65.6455 20.7897C65.3144 20.346 64.8843 19.9857 64.3895 19.7375C63.8946 19.4894 63.3486 19.3602 62.795 19.3604Z" fill="url(#paint1_linear_2_4512)"/>
<path d="M22.0003 49.267H56.0225C56.7888 49.2672 57.5346 49.0198 58.1489 48.5617C58.7632 48.1036 59.213 47.4593 59.4314 46.7248L66.2047 23.9293C66.3625 23.3986 66.3942 22.8384 66.2973 22.2934C66.2003 21.7483 65.9774 21.2334 65.6464 20.7897C65.3153 20.346 64.8852 19.9857 64.3903 19.7375C63.8954 19.4894 63.3495 19.3602 62.7958 19.3604H13.0625" stroke="url(#paint2_linear_2_4512)" stroke-linecap="round" stroke-linejoin="round"/>
<path d="M56.5022 56.7652H21.7067C21.372 56.7648 21.0464 56.6565 20.7782 56.4563C20.5099 56.2561 20.3134 55.9748 20.2178 55.6541L8.2667 15.6541H2.00001C1.58745 15.6541 1.1918 15.4902 0.900079 15.1985C0.608355 14.9067 0.444458 14.5111 0.444458 14.0985C0.444458 13.686 0.608355 13.2903 0.900079 12.9986C1.1918 12.7069 1.58745 12.543 2.00001 12.543H9.42224C9.75733 12.5438 10.0833 12.6523 10.3521 12.8523C10.621 13.0523 10.8185 13.3334 10.9156 13.6541L22.8667 53.6541H56.5022C56.9148 53.6541 57.3105 53.818 57.6022 54.1097C57.8939 54.4014 58.0578 54.7971 58.0578 55.2096C58.0578 55.6222 57.8939 56.0179 57.6022 56.3096C57.3105 56.6013 56.9148 56.7652 56.5022 56.7652V56.7652Z" fill="url(#paint3_linear_2_4512)"/>
<path d="M9.42223 12.5431C9.75732 12.5439 10.0833 12.6524 10.3521 12.8524C10.621 13.0524 10.8185 13.3335 10.9156 13.6542L22.8667 53.6542H56.5022C56.9148 53.6542 57.3105 53.8181 57.6022 54.1098C57.8939 54.4015 58.0578 54.7972 58.0578 55.2097C58.0578 55.6223 57.8939 56.018 57.6022 56.3097C57.3105 56.6014 56.9148 56.7653 56.5022 56.7653H21.7067C21.372 56.7649 21.0464 56.6566 20.7782 56.4564C20.5099 56.2563 20.3134 55.9749 20.2178 55.6542L8.26668 15.6542H2C1.58744 15.6542 1.19179 15.4903 0.900065 15.1986C0.608342 14.9069 0.444444 14.5112 0.444444 14.0986C0.444444 13.6861 0.608342 13.2904 0.900065 12.9987C1.19179 12.707 1.58744 12.5431 2 12.5431H9.42223ZM9.42223 12.0986H2C1.46957 12.0986 0.960875 12.3093 0.585802 12.6844C0.210729 13.0595 0 13.5682 0 14.0986C0 14.6291 0.210729 15.1378 0.585802 15.5128C0.960875 15.8879 1.46957 16.0986 2 16.0986H7.93335L19.7911 55.7831C19.9163 56.1942 20.1698 56.5544 20.5145 56.8111C20.8592 57.0678 21.2769 57.2075 21.7067 57.2097H56.5022C57.0327 57.2097 57.5414 56.999 57.9165 56.624C58.2915 56.2489 58.5022 55.7402 58.5022 55.2097C58.5022 54.6793 58.2915 54.1706 57.9165 53.7955C57.5414 53.4205 57.0327 53.2097 56.5022 53.2097H23.2L11.3378 13.5342C11.214 13.1219 10.961 12.7603 10.6161 12.5026C10.2713 12.2449 9.85272 12.1049 9.42223 12.1031V12.0986Z" fill="url(#paint4_linear_2_4512)"/>
<g style="mix-blend-mode:soft-light">
<path d="M1.99991 13.534H10.8577C10.7426 13.2472 10.5444 13.0013 10.2887 12.8279C10.0329 12.6545 9.73116 12.5614 9.42214 12.5606H1.99991C1.75334 12.5578 1.5097 12.6143 1.28954 12.7254C1.06939 12.8365 0.879172 12.9989 0.734939 13.1989C0.590706 13.3989 0.496698 13.6306 0.460823 13.8746C0.424948 14.1186 0.448252 14.3676 0.528803 14.6006C0.630691 14.2907 0.827708 14.0208 1.09182 13.8293C1.35593 13.6378 1.67368 13.5345 1.99991 13.534Z" fill="white"/>
</g>
<path d="M33.1043 66.7836C34.7775 65.1104 34.7775 62.3976 33.1043 60.7245C31.4311 59.0513 28.7184 59.0513 27.0452 60.7245C25.372 62.3976 25.372 65.1104 27.0452 66.7836C28.7184 68.4568 31.4311 68.4568 33.1043 66.7836Z" fill="url(#paint5_linear_2_4512)"/>
<g style="mix-blend-mode:soft-light">
<path d="M30.0753 60.1741C31.1503 60.1749 32.1856 60.5798 32.976 61.3084C33.7663 62.037 34.2539 63.0361 34.342 64.1074C34.342 63.9919 34.342 63.8763 34.342 63.7563C34.3062 62.6433 33.8388 61.5879 33.0388 60.8132C32.2388 60.0386 31.1689 59.6055 30.0553 59.6055C28.9417 59.6055 27.8718 60.0386 27.0718 60.8132C26.2719 61.5879 25.8045 62.6433 25.7687 63.7563C25.7687 63.8763 25.7687 63.9919 25.7687 64.1074C25.8583 63.0296 26.3519 62.0254 27.1505 61.296C27.9491 60.5666 28.9938 60.1659 30.0753 60.1741V60.1741Z" fill="white"/>
</g>
<path d="M30.0754 59.4718C30.9239 59.4718 31.7533 59.7235 32.4587 60.1949C33.1641 60.6664 33.7138 61.3365 34.0383 62.1204C34.3628 62.9044 34.4474 63.767 34.2816 64.599C34.1157 65.4311 33.7068 66.1953 33.1065 66.795C32.5063 67.3946 31.7417 67.8027 30.9094 67.9677C30.0772 68.1327 29.2147 68.0471 28.4311 67.7218C27.6475 67.3965 26.9779 66.8461 26.5072 66.1402C26.0364 65.4343 25.7857 64.6047 25.7865 63.7562C25.7877 62.6195 26.2401 61.5298 27.0443 60.7264C27.8485 59.9231 28.9387 59.4718 30.0754 59.4718M30.0754 59.0273C29.1389 59.0265 28.2231 59.3034 27.4441 59.8232C26.665 60.343 26.0576 61.0822 25.6988 61.9473C25.34 62.8124 25.2459 63.7644 25.4284 64.683C25.6109 65.6016 26.0618 66.4454 26.724 67.1077C27.3862 67.7699 28.2301 68.2208 29.1486 68.4033C30.0672 68.5858 31.0193 68.4917 31.8844 68.1329C32.7495 67.7741 33.4887 67.1667 34.0085 66.3876C34.5282 65.6085 34.8052 64.6928 34.8043 63.7562C34.802 62.5028 34.303 61.3013 33.4167 60.415C32.5303 59.5287 31.3289 59.0297 30.0754 59.0273V59.0273Z" fill="url(#paint6_linear_2_4512)"/>
<path d="M52.3519 64.7526C52.8978 62.4502 51.474 60.1411 49.1716 59.5952C46.8692 59.0492 44.5601 60.4731 44.0142 62.7755C43.4682 65.0779 44.8921 67.3869 47.1945 67.9329C49.4969 68.4788 51.8059 67.055 52.3519 64.7526Z" fill="url(#paint7_linear_2_4512)"/>
<g style="mix-blend-mode:soft-light">
<path d="M48.1779 60.174C49.2531 60.1738 50.2891 60.5783 51.0796 61.3071C51.8702 62.0359 52.3575 63.0356 52.4446 64.1073C52.4446 63.9918 52.4446 63.8762 52.4446 63.7562C52.3472 62.6907 51.8552 61.7 51.0649 60.9787C50.2747 60.2573 49.2434 59.8574 48.1734 59.8574C47.1035 59.8574 46.0722 60.2573 45.282 60.9787C44.4917 61.7 43.9997 62.6907 43.9023 63.7562C43.9023 63.8762 43.9023 63.9918 43.9023 64.1073C43.9916 63.0349 44.4807 62.0351 45.2727 61.3065C46.0647 60.5779 47.1017 60.1736 48.1779 60.174V60.174Z" fill="white"/>
</g>
<path d="M48.1782 59.4718C49.0272 59.4692 49.8579 59.7186 50.5651 60.1885C51.2722 60.6583 51.824 61.3275 52.1505 62.1112C52.4771 62.8949 52.5637 63.7579 52.3993 64.5909C52.235 65.4238 51.8271 66.1893 51.2274 66.7902C50.6277 67.3912 49.8631 67.8007 49.0304 67.9667C48.1978 68.1328 47.3347 68.048 46.5503 67.7231C45.7659 67.3982 45.0955 66.8478 44.6242 66.1416C44.1529 65.4355 43.9018 64.6053 43.9026 63.7563C43.9038 62.6196 44.3562 61.5298 45.1604 60.7264C45.9646 59.9231 47.0548 59.4718 48.1915 59.4718M48.1915 59.0274C47.2544 59.0239 46.3374 59.2986 45.5565 59.8168C44.7757 60.3349 44.1663 61.0732 43.8054 61.938C43.4446 62.8029 43.3486 63.7554 43.5295 64.6748C43.7105 65.5943 44.1604 66.4394 44.8221 67.1029C45.4838 67.7665 46.3276 68.2187 47.2465 68.4023C48.1655 68.5859 49.1182 68.4926 49.9841 68.1341C50.8499 67.7757 51.5899 67.1684 52.1103 66.389C52.6307 65.6097 52.908 64.6934 52.9071 63.7563C52.9047 62.5028 52.4058 61.3014 51.5194 60.415C50.6331 59.5287 49.4317 59.0297 48.1782 59.0274H48.1915Z" fill="url(#paint8_linear_2_4512)"/>
</g>
<defs>
<filter id="filter0_d_2_4512" x="18.1328" y="-1.32422" width="42.7021" height="46.3822" filterUnits="userSpaceOnUse" color-interpolation-filters="sRGB">
<feFlood flood-opacity="0" result="BackgroundImageFix"/>
<feColorMatrix in="SourceAlpha" type="matrix" values="0 0 0 0 0 0 0 0 0 0 0 0 0 0 0 0 0 0 127 0" result="hardAlpha"/>
<feOffset/>
<feGaussianBlur stdDeviation="2.5"/>
<feComposite in2="hardAlpha" operator="out"/>
<feColorMatrix type="matrix" values="0 0 0 0 1 0 0 0 0 0.517647 0 0 0 0 0.682353 0 0 0 1 0"/>
<feBlend mode="normal" in2="BackgroundImageFix" result="effect1_dropShadow_2_4512"/>
<feBlend mode="normal" in="SourceGraphic" in2="effect1_dropShadow_2_4512" result="shape"/>
</filter>
<linearGradient id="paint0_linear_2_4512" x1="39.4839" y1="3.67578" x2="39.4839" y2="40.058" gradientUnits="userSpaceOnUse">
<stop stop-color="#FF8CB3"/>
<stop offset="0.22" stop-color="#FF84AE"/>
<stop offset="0.57" stop-color="#FF6DA1"/>
<stop offset="1" stop-color="#FF498B"/>
</linearGradient>
<linearGradient id="paint1_linear_2_4512" x1="39.4839" y1="19.3604" x2="39.4839" y2="49.267" gradientUnits="userSpaceOnUse">
<stop stop-color="white" stop-opacity="0.9"/>
<stop offset="0.01" stop-color="white" stop-opacity="0.84"/>
<stop offset="0.03" stop-color="white" stop-opacity="0.73"/>
<stop offset="0.05" stop-color="white" stop-opacity="0.65"/>
<stop offset="0.08" stop-color="white" stop-opacity="0.58"/>
<stop offset="0.11" stop-color="white" stop-opacity="0.53"/>
<stop offset="0.16" stop-color="white" stop-opacity="0.51"/>
<stop offset="0.28" stop-color="white" stop-opacity="0.5"/>
<stop offset="0.46" stop-color="#FEFEFE" stop-opacity="0.48"/>
<stop offset="0.67" stop-color="#FAFAFA" stop-opacity="0.43"/>
<stop offset="0.89" stop-color="#F3F3F3" stop-opacity="0.35"/>
<stop offset="1" stop-color="#EFEFEF" stop-opacity="0.3"/>
</linearGradient>
<linearGradient id="paint2_linear_2_4512" x1="39.7069" y1="49.4892" x2="39.7069" y2="19.1381" gradientUnits="userSpaceOnUse">
<stop stop-color="white" stop-opacity="0.9"/>
<stop offset="0.03" stop-color="white" stop-opacity="0.83"/>
<stop offset="0.11" stop-color="white" stop-opacity="0.68"/>
<stop offset="0.17" stop-color="white" stop-opacity="0.58"/>
<stop offset="0.23" stop-color="white" stop-opacity="0.52"/>
<stop offset="0.28" stop-color="white" stop-opacity="0.5"/>
<stop offset="0.46" stop-color="#FEFEFE" stop-opacity="0.48"/>
<stop offset="0.67" stop-color="#FAFAFA" stop-opacity="0.43"/>
<stop offset="0.89" stop-color="#F3F3F3" stop-opacity="0.35"/>
<stop offset="1" stop-color="#EFEFEF" stop-opacity="0.3"/>
</linearGradient>
<linearGradient id="paint3_linear_2_4512" x1="29.2489" y1="12.543" x2="29.2489" y2="56.7652" gradientUnits="userSpaceOnUse">
<stop stop-color="white" stop-opacity="0.9"/>
<stop offset="0.01" stop-color="white" stop-opacity="0.84"/>
<stop offset="0.03" stop-color="white" stop-opacity="0.73"/>
<stop offset="0.05" stop-color="white" stop-opacity="0.65"/>
<stop offset="0.08" stop-color="white" stop-opacity="0.58"/>
<stop offset="0.11" stop-color="white" stop-opacity="0.53"/>
<stop offset="0.16" stop-color="white" stop-opacity="0.51"/>
<stop offset="0.28" stop-color="white" stop-opacity="0.5"/>
<stop offset="0.46" stop-color="#FEFEFE" stop-opacity="0.48"/>
<stop offset="0.67" stop-color="#FAFAFA" stop-opacity="0.43"/>
<stop offset="0.89" stop-color="#F3F3F3" stop-opacity="0.35"/>
<stop offset="1" stop-color="#EFEFEF" stop-opacity="0.3"/>
</linearGradient>
<linearGradient id="paint4_linear_2_4512" x1="29.2489" y1="57.2097" x2="29.2489" y2="12.0986" gradientUnits="userSpaceOnUse">
<stop stop-color="white" stop-opacity="0.9"/>
<stop offset="0.03" stop-color="white" stop-opacity="0.83"/>
<stop offset="0.11" stop-color="white" stop-opacity="0.68"/>
<stop offset="0.17" stop-color="white" stop-opacity="0.58"/>
<stop offset="0.23" stop-color="white" stop-opacity="0.52"/>
<stop offset="0.28" stop-color="white" stop-opacity="0.5"/>
<stop offset="0.46" stop-color="#FEFEFE" stop-opacity="0.48"/>
<stop offset="0.67" stop-color="#FAFAFA" stop-opacity="0.43"/>
<stop offset="0.89" stop-color="#F3F3F3" stop-opacity="0.35"/>
<stop offset="1" stop-color="#EFEFEF" stop-opacity="0.3"/>
</linearGradient>
<linearGradient id="paint5_linear_2_4512" x1="30.0787" y1="59.4706" x2="30.0787" y2="68.044" gradientUnits="userSpaceOnUse">
<stop stop-color="white" stop-opacity="0.9"/>
<stop offset="0.01" stop-color="white" stop-opacity="0.84"/>
<stop offset="0.03" stop-color="white" stop-opacity="0.73"/>
<stop offset="0.05" stop-color="white" stop-opacity="0.65"/>
<stop offset="0.08" stop-color="white" stop-opacity="0.58"/>
<stop offset="0.11" stop-color="white" stop-opacity="0.53"/>
<stop offset="0.16" stop-color="white" stop-opacity="0.51"/>
<stop offset="0.28" stop-color="white" stop-opacity="0.5"/>
<stop offset="0.46" stop-color="#FEFEFE" stop-opacity="0.48"/>
<stop offset="0.67" stop-color="#FAFAFA" stop-opacity="0.43"/>
<stop offset="0.89" stop-color="#F3F3F3" stop-opacity="0.35"/>
<stop offset="1" stop-color="#EFEFEF" stop-opacity="0.3"/>
</linearGradient>
<linearGradient id="paint6_linear_2_4512" x1="30.0754" y1="68.4896" x2="30.0754" y2="59.0273" gradientUnits="userSpaceOnUse">
<stop stop-color="white" stop-opacity="0.9"/>
<stop offset="0.03" stop-color="white" stop-opacity="0.83"/>
<stop offset="0.11" stop-color="white" stop-opacity="0.68"/>
<stop offset="0.17" stop-color="white" stop-opacity="0.58"/>
<stop offset="0.23" stop-color="white" stop-opacity="0.52"/>
<stop offset="0.28" stop-color="white" stop-opacity="0.5"/>
<stop offset="0.46" stop-color="#FEFEFE" stop-opacity="0.48"/>
<stop offset="0.67" stop-color="#FAFAFA" stop-opacity="0.43"/>
<stop offset="0.89" stop-color="#F3F3F3" stop-opacity="0.35"/>
<stop offset="1" stop-color="#EFEFEF" stop-opacity="0.3"/>
</linearGradient>
<linearGradient id="paint7_linear_2_4512" x1="48.1878" y1="59.4725" x2="48.1878" y2="68.0459" gradientUnits="userSpaceOnUse">
<stop stop-color="white" stop-opacity="0.9"/>
<stop offset="0.01" stop-color="white" stop-opacity="0.84"/>
<stop offset="0.03" stop-color="white" stop-opacity="0.73"/>
<stop offset="0.05" stop-color="white" stop-opacity="0.65"/>
<stop offset="0.08" stop-color="white" stop-opacity="0.58"/>
<stop offset="0.11" stop-color="white" stop-opacity="0.53"/>
<stop offset="0.16" stop-color="white" stop-opacity="0.51"/>
<stop offset="0.28" stop-color="white" stop-opacity="0.5"/>
<stop offset="0.46" stop-color="#FEFEFE" stop-opacity="0.48"/>
<stop offset="0.67" stop-color="#FAFAFA" stop-opacity="0.43"/>
<stop offset="0.89" stop-color="#F3F3F3" stop-opacity="0.35"/>
<stop offset="1" stop-color="#EFEFEF" stop-opacity="0.3"/>
</linearGradient>
<linearGradient id="paint8_linear_2_4512" x1="48.1782" y1="68.4896" x2="48.1782" y2="59.0274" gradientUnits="userSpaceOnUse">
<stop stop-color="white" stop-opacity="0.9"/>
<stop offset="0.03" stop-color="white" stop-opacity="0.83"/>
<stop offset="0.11" stop-color="white" stop-opacity="0.68"/>
<stop offset="0.17" stop-color="white" stop-opacity="0.58"/>
<stop offset="0.23" stop-color="white" stop-opacity="0.52"/>
<stop offset="0.28" stop-color="white" stop-opacity="0.5"/>
<stop offset="0.46" stop-color="#FEFEFE" stop-opacity="0.48"/>
<stop offset="0.67" stop-color="#FAFAFA" stop-opacity="0.43"/>
<stop offset="0.89" stop-color="#F3F3F3" stop-opacity="0.35"/>
<stop offset="1" stop-color="#EFEFEF" stop-opacity="0.3"/>
</linearGradient>
<clipPath id="clip0_2_4512">
<rect width="330" height="210" fill="white" transform="translate(-129 -29)"/>
</clipPath>
</defs>
</svg>
